<svg width="43" height="39" viewBox="0 0 43 43" fill="none" xmlns="http://www.w3.org/2000/svg">
<path d="M15.2211 21.6438L28.2211 21.6628M21.7116 28.1533L21.7306 15.1533M41.2189 21.6818C41.2245 17.8251 40.0864 14.0533 37.9484 10.8434C35.8104 7.6335 32.7686 5.12969 29.2076 3.64857C25.6466 2.16745 21.7263 1.77556 17.9426 2.52244C14.1589 3.26932 10.6816 5.12144 7.95051 7.84457C5.21941 10.5677 3.35713 14.0396 2.59919 17.8211C1.84125 21.6026 2.22169 25.524 3.69238 29.0893C5.16308 32.6546 7.65799 35.7037 10.8616 37.8511C14.0652 39.9985 17.8337 41.1476 21.6904 41.1533C24.9144 41.158 27.9554 40.3824 30.6354 38.9997L41.1904 41.1818L39.0392 30.6204C40.4297 27.9445 41.2142 24.9036 41.2189 21.6818Z" stroke="black" stroke-width="3" stroke-linecap="round" stroke-linejoin="round"/>
</svg>
