<svg width="38" height="37" viewBox="0 0 38 38" fill="none" xmlns="http://www.w3.org/2000/svg">
<path d="M36.8125 28.5H32.0625V23.75H29.6875V28.5H24.9375V30.875H29.6875V35.625H32.0625V30.875H36.8125V28.5Z" fill="black"/>
<path d="M29.6875 5.9375H26.125V4.75C26.1231 4.12069 25.8723 3.51769 25.4273 3.0727C24.9823 2.62771 24.3793 2.37688 23.75 2.375H14.25C13.6207 2.37688 13.0177 2.62771 12.5727 3.0727C12.1277 3.51769 11.8769 4.12069 11.875 4.75V5.9375H8.3125C7.68319 5.93938 7.08019 6.19021 6.6352 6.6352C6.19021 7.08019 5.93938 7.68319 5.9375 8.3125V33.25C5.93938 33.8793 6.19021 34.4823 6.6352 34.9273C7.08019 35.3723 7.68319 35.6231 8.3125 35.625H20.1875V33.25H8.3125V8.3125H11.875V11.875H26.125V8.3125H29.6875V19H32.0625V8.3125C32.0606 7.68319 31.8098 7.08019 31.3648 6.6352C30.9198 6.19021 30.3168 5.93938 29.6875 5.9375ZM23.75 9.5H14.25V4.75H23.75V9.5Z" fill="black"/>
</svg>
