<svg width="80" height="80" viewBox="0 0 80 80" fill="none" xmlns="http://www.w3.org/2000/svg">
<path d="M46.683 60.8379L30.2856 60.7988C27.6827 60.7734 25.6007 58.6772 25.593 56.0742L25.6964 25.6008C25.7097 23.1135 26.708 20.7327 28.4728 18.9799C30.2376 17.2271 32.625 16.2449 35.1124 16.2486L46.8176 16.2883C49.4206 16.3137 51.5025 18.4098 51.5102 21.0129L51.3909 56.1618C51.3655 58.7647 49.2694 60.8467 46.683 60.8379ZM46.8183 20.9804L35.0964 20.9572C32.4934 20.9318 30.3973 23.0137 30.3884 25.6333L30.3487 37.3385L46.7625 37.3942L46.8183 20.9804Z" fill="black"/>
<path d="M33 66H45" stroke="black" stroke-width="3.8" stroke-linecap="round"/>
</svg>
