<svg width="24" height="22" viewBox="0 0 24 22" fill="none" xmlns="http://www.w3.org/2000/svg">
<path d="M14.5714 0C13.8894 0 13.2354 0.267444 12.7532 0.743498C12.2709 1.21955 12 1.86522 12 2.53846V5.92308C12.0001 6.44796 12.165 6.9599 12.472 7.38844C12.779 7.81698 13.213 8.14104 13.7143 8.316V10.1538C13.7143 10.3146 13.7608 10.4721 13.8482 10.6077C13.9357 10.7434 14.0604 10.8516 14.2079 10.9198C14.3554 10.988 14.5195 11.0133 14.6811 10.9927C14.8426 10.9722 14.9949 10.9066 15.12 10.8037L17.9657 8.46154H21.4286C22.1106 8.46154 22.7646 8.19409 23.2468 7.71804C23.7291 7.24199 24 6.59632 24 5.92308V2.53846C24 1.86522 23.7291 1.21955 23.2468 0.743498C22.7646 0.267444 22.1106 0 21.4286 0H14.5714ZM13.7143 2.53846C13.7143 2.31405 13.8046 2.09883 13.9653 1.94014C14.1261 1.78146 14.3441 1.69231 14.5714 1.69231H21.4286C21.6559 1.69231 21.8739 1.78146 22.0347 1.94014C22.1954 2.09883 22.2857 2.31405 22.2857 2.53846V5.92308C22.2857 6.14749 22.1954 6.36271 22.0347 6.5214C21.8739 6.68008 21.6559 6.76923 21.4286 6.76923H17.6571C17.4567 6.76932 17.2625 6.83878 17.1086 6.96554L15.4286 8.34646V7.61538C15.4286 7.39097 15.3383 7.17575 15.1775 7.01706C15.0168 6.85838 14.7988 6.76923 14.5714 6.76923C14.3441 6.76923 14.1261 6.68008 13.9653 6.5214C13.8046 6.36271 13.7143 6.14749 13.7143 5.92308V2.53846ZM3.42857 8.46154C3.42857 7.56388 3.78979 6.70299 4.43278 6.06825C5.07576 5.43352 5.94783 5.07692 6.85714 5.07692C7.76646 5.07692 8.63853 5.43352 9.28151 6.06825C9.92449 6.70299 10.2857 7.56388 10.2857 8.46154C10.2857 9.35919 9.92449 10.2201 9.28151 10.8548C8.63853 11.4896 7.76646 11.8462 6.85714 11.8462C5.94783 11.8462 5.07576 11.4896 4.43278 10.8548C3.78979 10.2201 3.42857 9.35919 3.42857 8.46154ZM6.85714 6.76923C6.40249 6.76923 5.96645 6.94753 5.64496 7.2649C5.32347 7.58227 5.14286 8.01271 5.14286 8.46154C5.14286 8.91037 5.32347 9.34081 5.64496 9.65818C5.96645 9.97555 6.40249 10.1538 6.85714 10.1538C7.3118 10.1538 7.74783 9.97555 8.06933 9.65818C8.39082 9.34081 8.57143 8.91037 8.57143 8.46154C8.57143 8.01271 8.39082 7.58227 8.06933 7.2649C7.74783 6.94753 7.3118 6.76923 6.85714 6.76923ZM2.57143 13.5385H11.1429C11.8248 13.5385 12.4789 13.8059 12.9611 14.282C13.4434 14.758 13.7143 15.4037 13.7143 16.0769C13.7143 17.9655 12.9274 19.4785 11.6366 20.5023C10.3663 21.5092 8.66229 22 6.85714 22C5.052 22 3.348 21.5092 2.07771 20.5023C0.788571 19.4785 0 17.9655 0 16.0769C0 15.4037 0.270918 14.758 0.753154 14.282C1.23539 13.8059 1.88944 13.5385 2.57143 13.5385ZM11.1429 15.2308H2.57143C2.3441 15.2308 2.12608 15.3199 1.96534 15.4786C1.80459 15.6373 1.71429 15.8525 1.71429 16.0769C1.71429 17.4595 2.27143 18.4851 3.15086 19.1823C4.05257 19.8965 5.34857 20.3077 6.85714 20.3077C8.36571 20.3077 9.66171 19.8965 10.5634 19.1823C11.4429 18.4851 12 17.4595 12 16.0769C12 15.8525 11.9097 15.6373 11.7489 15.4786C11.5882 15.3199 11.3702 15.2308 11.1429 15.2308Z" fill="black"/>
</svg>
