<svg width="23" height="23" viewBox="0 0 23 23" fill="none" xmlns="http://www.w3.org/2000/svg">
<path d="M11.5 22C12.8791 22.0018 14.245 21.731 15.5192 21.2032C16.7933 20.6754 17.9506 19.901 18.9245 18.9245C19.901 17.9506 20.6754 16.7933 21.2032 15.5192C21.731 14.245 22.0018 12.8791 22 11.5C22.0017 10.1209 21.731 8.75498 21.2032 7.48083C20.6754 6.20668 19.901 5.04939 18.9245 4.07546C17.9506 3.09897 16.7933 2.32458 15.5192 1.79679C14.245 1.269 12.8791 0.998222 11.5 1.00001C10.1209 0.998251 8.75498 1.26905 7.48083 1.79683C6.20668 2.32462 5.04939 3.09899 4.07546 4.07546C3.09899 5.04939 2.32462 6.20668 1.79683 7.48083C1.26905 8.75498 0.998251 10.1209 1.00001 11.5C0.998222 12.8791 1.269 14.245 1.79679 15.5192C2.32458 16.7933 3.09897 17.9506 4.07546 18.9245C5.04939 19.901 6.20668 20.6754 7.48083 21.2032C8.75498 21.731 10.1209 22.0017 11.5 22Z" stroke="#111111" stroke-width="1.7" stroke-linejoin="round"/>
<path d="M11.4996 13.9293V11.8293C12.1226 11.8293 12.7316 11.6445 13.2497 11.2984C13.7677 10.9523 14.1714 10.4603 14.4098 9.88475C14.6482 9.30916 14.7106 8.6758 14.5891 8.06476C14.4675 7.45372 14.1675 6.89245 13.727 6.45191C13.2865 6.01138 12.7252 5.71137 12.1141 5.58982C11.5031 5.46828 10.8697 5.53066 10.2942 5.76908C9.71857 6.00749 9.22661 6.41124 8.88048 6.92925C8.53435 7.44726 8.34961 8.05628 8.34961 8.6793" stroke="#111111" stroke-width="1.7" stroke-linecap="round" stroke-linejoin="round"/>
<path fill-rule="evenodd" clip-rule="evenodd" d="M11.5 18.6543C11.8481 18.6543 12.1819 18.516 12.4281 18.2699C12.6742 18.0237 12.8125 17.6899 12.8125 17.3418C12.8125 16.9937 12.6742 16.6599 12.4281 16.4137C12.1819 16.1676 11.8481 16.0293 11.5 16.0293C11.1519 16.0293 10.8181 16.1676 10.5719 16.4137C10.3258 16.6599 10.1875 16.9937 10.1875 17.3418C10.1875 17.6899 10.3258 18.0237 10.5719 18.2699C10.8181 18.516 11.1519 18.6543 11.5 18.6543Z" fill="#111111"/>
</svg>
