<svg width="16" height="17" viewBox="0 0 16 17" fill="none" xmlns="http://www.w3.org/2000/svg">
<path d="M9.88889 5.66667C9.3366 5.66667 8.88889 5.21895 8.88889 4.66667V0.999999C8.88889 0.447715 9.3366 0 9.88889 0H15C15.5523 0 16 0.447715 16 1V4.66667C16 5.21895 15.5523 5.66667 15 5.66667H9.88889ZM1 9.44444C0.447715 9.44444 0 8.99673 0 8.44444V0.999999C0 0.447714 0.447715 0 1 0H6.11111C6.6634 0 7.11111 0.447715 7.11111 1V8.44445C7.11111 8.99673 6.6634 9.44444 6.11111 9.44444H1ZM9.88889 17C9.3366 17 8.88889 16.5523 8.88889 16V8.55555C8.88889 8.00327 9.3366 7.55556 9.88889 7.55556H15C15.5523 7.55556 16 8.00327 16 8.55556V16C16 16.5523 15.5523 17 15 17H9.88889ZM1 17C0.447715 17 0 16.5523 0 16V12.3333C0 11.781 0.447715 11.3333 1 11.3333H6.11111C6.6634 11.3333 7.11111 11.781 7.11111 12.3333V16C7.11111 16.5523 6.6634 17 6.11111 17H1Z" fill="#111111"/>
</svg>
