<svg width="63" height="63" viewBox="0 0 63 63" fill="none" xmlns="http://www.w3.org/2000/svg">
<path d="M22.998 54.0015H34.998" stroke="black" stroke-width="3.8" stroke-linecap="round"/>
<path d="M16.2818 48.2892C16.484 48.2898 16.6844 48.2506 16.8715 48.1738C17.0586 48.0969 17.2286 47.9839 17.372 47.8413C17.5154 47.6987 17.6293 47.5292 17.7071 47.3425C17.7849 47.1559 17.8252 46.9557 17.8256 46.7535L17.8602 33.0574L40.8996 33.1179L40.8622 46.8139C40.8617 47.0161 40.901 47.2165 40.9779 47.4035C41.0548 47.5905 41.1678 47.7605 41.3104 47.9039C41.453 48.0472 41.6224 48.1611 41.809 48.239C41.9956 48.3168 42.1958 48.3572 42.398 48.3577C42.6002 48.3583 42.8005 48.319 42.9875 48.2421C43.1745 48.1652 43.3446 48.0522 43.4879 47.9096C43.6313 47.767 43.7452 47.5975 43.823 47.4109C43.9009 47.2243 43.9412 47.0242 43.9418 46.822L43.9764 33.126C43.978 32.4674 43.7684 31.8257 43.3783 31.295C42.9882 30.7644 42.4382 30.373 41.8091 30.1781L41.8229 24.4149C41.8247 23.5989 41.5025 22.8156 40.9271 22.2372C40.3517 21.6587 39.5701 21.3324 38.7541 21.33L37.4782 21.3266L37.5213 5.45428C37.522 5.19183 37.4557 4.93354 37.3285 4.70396C37.2013 4.47438 37.0176 4.28115 36.7946 4.14262C36.5717 4.00409 36.3171 3.92487 36.0549 3.91249C35.7928 3.90011 35.5318 3.95498 35.2968 4.07189L22.2216 10.5667C22.0733 10.6399 21.9379 10.737 21.821 10.854C21.6775 10.9964 21.5636 11.1658 21.4856 11.3523C21.4076 11.5388 21.3672 11.7388 21.3665 11.941L21.3434 21.2843L20.0675 21.281C19.2515 21.2791 18.4682 21.6013 17.8898 22.1767C17.3113 22.7522 16.985 23.5337 16.9826 24.3497L16.9675 30.1116C16.3369 30.3029 15.7844 30.6916 15.3912 31.2205C14.998 31.7493 14.785 32.3904 14.7834 33.0494L14.7461 46.7454C14.7454 46.9476 14.7847 47.148 14.8615 47.3351C14.9384 47.5221 15.0513 47.6922 15.194 47.8356C15.3366 47.979 15.5061 48.0928 15.6927 48.1707C15.8794 48.2485 16.0796 48.2888 16.2818 48.2892ZM20.0594 24.3578L38.7461 24.4068L38.7313 30.0354L20.0446 29.9863L20.0594 24.3578Z" fill="black"/>
</svg>
