<svg width="6" height="5" viewBox="0 0 6 31" fill="none" xmlns="http://www.w3.org/2000/svg">
<path d="M0.198967 27.7402C0.196957 29.1152 1.32031 30.2419 2.69531 30.2439C4.07031 30.2459 5.19695 29.1225 5.19896 27.7475C5.20097 26.3725 4.07762 25.2459 2.70262 25.2439C1.32762 25.2419 0.200977 26.3652 0.198967 27.7402ZM0.235514 2.74026C0.233504 4.11526 1.35686 5.24191 2.73186 5.24392C4.10686 5.24593 5.2335 4.12257 5.23551 2.74757C5.23752 1.37257 4.11416 0.245931 2.73917 0.243921C1.36417 0.241911 0.237524 1.36527 0.235514 2.74026ZM0.217241 15.2403C0.215231 16.6152 1.33858 17.7419 2.71358 17.7439C4.08858 17.7459 5.21523 16.6226 5.21724 15.2476C5.21925 13.8726 4.09589 12.7459 2.72089 12.7439C1.34589 12.7419 0.219251 13.8653 0.217241 15.2403Z" fill="black"/>
</svg>
