<svg width="19" height="18" viewBox="0 0 19 23" fill="none" xmlns="http://www.w3.org/2000/svg">
<path d="M7.89444 20.9447C8.05253 21.2643 8.28492 21.5308 8.56735 21.7164C8.84978 21.9021 9.17188 22 9.5 22C9.82812 22 10.1502 21.9021 10.4326 21.7164C10.7151 21.5308 10.9475 21.2643 11.1056 20.9447M3.83333 7.29832C3.83333 5.6279 4.43036 4.0259 5.49306 2.84474C6.55577 1.66357 7.99711 1 9.5 1C11.0029 1 12.4442 1.66357 13.5069 2.84474C14.5696 4.0259 15.1667 5.6279 15.1667 7.29832C15.1667 14.6464 18 16.7458 18 16.7458H1C1 16.7458 3.83333 14.6464 3.83333 7.29832Z" stroke="#111111" stroke-width="2" stroke-linecap="round" stroke-linejoin="round"/>
</svg>
