<svg width="46" height="44" viewBox="0 0 46 46" fill="none" xmlns="http://www.w3.org/2000/svg">
<g clip-path="url(#clip0_47_224)">
<path d="M46 23C46 29.1 43.5768 34.9501 39.2635 39.2635C34.9501 43.5768 29.1 46 23 46C16.9 46 11.0499 43.5768 6.73654 39.2635C2.42321 34.9501 0 29.1 0 23C0 16.9 2.42321 11.0499 6.73654 6.73654C11.0499 2.42321 16.9 0 23 0C29.1 0 34.9501 2.42321 39.2635 6.73654C43.5768 11.0499 46 16.9 46 23ZM33.0625 40.434L29.3796 26.933C29.2963 26.6287 29.1153 26.3603 28.8643 26.1691C28.6134 25.9779 28.3065 25.8745 27.991 25.875H18.009C17.6935 25.8745 17.3866 25.9779 17.1357 26.1691C16.8847 26.3603 16.7037 26.6287 16.6204 26.933L12.9404 40.434C15.9979 42.2018 19.4682 43.1302 23 43.125C26.6656 43.125 30.1013 42.1475 33.0625 40.434ZM35.5724 38.7147C38.8287 36.1096 41.1953 32.5572 42.345 28.5487C43.4947 24.5401 43.3708 20.2734 41.9904 16.3383C40.61 12.4033 38.0413 8.99418 34.6393 6.58235C31.2374 4.17053 27.1702 2.87508 23 2.87508C18.8298 2.87508 14.7626 4.17053 11.3607 6.58235C7.9587 8.99418 5.38997 12.4033 4.00956 16.3383C2.62916 20.2734 2.50526 24.5401 3.655 28.5487C4.80474 32.5572 7.17133 36.1096 10.4276 38.7147L13.8489 26.1797C14.0796 25.3316 14.5639 24.5742 15.237 24.009C15.9101 23.4438 16.7399 23.0978 17.6151 23.0172L20.9358 11.9456C21.5481 9.89575 24.4519 9.89575 25.0643 11.9456L28.3877 23.0172C29.263 23.0978 30.0927 23.4438 30.7659 24.009C31.439 24.5742 31.9233 25.3316 32.154 26.1797L35.5724 38.7147Z" fill="black"/>
</g>
<defs>
<clipPath id="clip0_47_224">
<rect width="46" height="46" fill="white"/>
</clipPath>
</defs>
</svg>
