<svg width="32" height="45" viewBox="0 0 32 45" fill="none" xmlns="http://www.w3.org/2000/svg">
<path d="M26.9921 35.5457C26.7314 36.2107 26.2949 36.7924 25.7292 37.2286C25.1635 37.6648 24.4899 37.9391 23.7804 38.0222L23.4451 38.0481L10.281 38.4634C9.56651 38.4863 8.85918 38.3146 8.23471 37.9665C7.61025 37.6184 7.09214 37.1071 6.73582 36.4873L6.58272 36.1895L1.2738 24.8116C0.976796 24.1743 0.855683 23.4692 0.923024 22.7693C0.990366 22.0695 1.24371 21.4004 1.65678 20.8316L7.59647 12.6748C7.7503 12.4677 7.90918 12.2438 8.06914 12.01L8.56468 11.2747L8.81731 10.8845L9.59153 9.65649L10.107 8.80201L10.8721 7.5059L11.8328 5.82565L13.3575 3.06066L13.9789 1.89739C14.1345 1.60259 14.3615 1.35156 14.6392 1.16732C14.917 0.983068 15.2366 0.871498 15.5686 0.842839C15.9007 0.814179 16.2347 0.869347 16.5399 1.00328C16.8452 1.13722 17.1119 1.34563 17.3157 1.60942L17.4797 1.85529L18.6802 3.77978L19.8305 5.57335L20.8956 7.18969L21.7412 8.43499L22.3126 9.25519L23.1602 10.4321L23.7092 11.1637L24.238 11.8332L30.9374 19.9065C31.3499 20.4058 31.6329 20.9991 31.7615 21.6339C31.8901 22.2686 31.8603 22.9253 31.6747 23.5457L31.5702 23.8558L26.9921 35.5457ZM23.3216 34.1064L27.8984 22.418L21.9705 15.2744L21.466 14.671C20.5408 13.5375 19.6628 12.3661 18.8345 11.1599L17.9354 9.85353L18.2257 19.016C18.9908 19.426 19.5992 20.077 19.9567 20.868C20.3141 21.659 20.4006 22.5459 20.2026 23.3909C20.0047 24.236 19.5334 24.9921 18.8618 25.542C18.1903 26.0919 17.356 26.4047 16.4885 26.4321C15.6209 26.4595 14.7685 26.1998 14.0635 25.6934C13.3585 25.1869 12.8403 24.462 12.5893 23.6311C12.3382 22.8002 12.3684 21.9097 12.675 21.0977C12.9817 20.2857 13.5477 19.5977 14.2853 19.1403L13.9951 9.97783L13.5912 10.6586L12.7707 12.0081C12.2553 12.8452 11.7172 13.6682 11.1571 14.476L4.84726 23.1452L10.1547 34.5217L23.3216 34.1064ZM24.8685 41.9474C24.8841 42.4273 24.724 42.8963 24.4184 43.2664C24.1127 43.6366 23.6825 43.8825 23.2084 43.958L22.9608 43.9797L11.1399 44.3526C10.6372 44.3709 10.1466 44.1963 9.76841 43.8647C9.39022 43.5331 9.15306 43.0695 9.10547 42.5688C9.05789 42.0681 9.20348 41.5681 9.51244 41.1713C9.8214 40.7744 10.2704 40.5107 10.7675 40.4341L11.015 40.4123L22.836 40.0394C23.3585 40.023 23.8661 40.2148 24.2473 40.5726C24.6284 40.9304 24.8519 41.4249 24.8685 41.9474Z" fill="black"/>
</svg>
