<svg width="16" height="20" viewBox="0 0 16 20" fill="none" xmlns="http://www.w3.org/2000/svg">
<path d="M15.9181 6.59933C15.8433 6.42808 15.7218 6.28111 15.5674 6.17509C15.4131 6.06906 15.232 6.00822 15.0446 5.99944H10.4465L11.7215 1.26035C11.7621 1.11205 11.7678 0.956425 11.7382 0.805566C11.7086 0.654708 11.6445 0.512677 11.5508 0.390512C11.4573 0.26952 11.3372 0.171469 11.1997 0.103878C11.0622 0.0362873 10.911 0.000953378 10.7577 0.000586368H3.72996C3.5033 -0.00714539 3.28069 0.0617744 3.09839 0.196121C2.91608 0.330467 2.78483 0.522325 2.72599 0.740445L0.0353686 10.7385C-0.00523953 10.8868 -0.0109659 11.0425 0.0186347 11.1933C0.0482354 11.3442 0.112365 11.4862 0.206042 11.6084C0.300601 11.7307 0.422322 11.8296 0.561668 11.8972C0.701013 11.9649 0.854196 11.9995 1.00921 11.9983H4.89456L3.07738 18.737C3.01784 18.9543 3.03373 19.1853 3.12246 19.3924C3.21119 19.5996 3.36758 19.7709 3.56627 19.8785C3.76496 19.9861 3.99432 20.0238 4.21718 19.9853C4.44005 19.9469 4.64335 19.8347 4.79416 19.6668L15.7374 7.66912C15.8677 7.52703 15.954 7.35051 15.9861 7.16075C16.0181 6.97099 15.9945 6.77605 15.9181 6.59933ZM6.08927 15.2777L7.16351 11.2784C7.20412 11.1301 7.20985 10.9745 7.18025 10.8237C7.15065 10.6728 7.08652 10.5308 6.99284 10.4086C6.89931 10.2876 6.7792 10.1896 6.64172 10.122C6.50423 10.0544 6.35303 10.019 6.19971 10.0187H2.34449L4.49297 2.0002H9.44251L8.16748 6.7393C8.12654 6.89032 8.12176 7.04881 8.15353 7.20201C8.18529 7.35521 8.25271 7.49885 8.35036 7.62138C8.44801 7.74392 8.57317 7.84192 8.71578 7.90751C8.85838 7.97311 9.01445 8.00446 9.17144 7.99906H12.7556L6.08927 15.2777Z" fill="#111111"/>
</svg>
