<svg width="17" height="15" viewBox="0 0 25 29" fill="none" xmlns="http://www.w3.org/2000/svg">
<path d="M17.067 15.5922L23.3975 13.9124L23.4429 13.9C23.8506 13.7693 24.2092 13.5184 24.4717 13.1803C24.7343 12.8422 24.8885 12.4326 24.9141 12.0053C24.9397 11.578 24.8356 11.1529 24.6153 10.7859C24.3951 10.4188 24.069 10.1269 23.6799 9.94844L3.3023 0.780128C2.94576 0.619418 2.55166 0.56064 2.16374 0.610317C1.77582 0.659994 1.40925 0.816182 1.10471 1.06155C0.800173 1.30692 0.569578 1.63187 0.438516 2.00033C0.307455 2.3688 0.281052 2.76638 0.36224 3.14894L4.98596 25.0102C5.07207 25.4318 5.28564 25.8167 5.59776 26.1128C5.90987 26.409 6.30546 26.6021 6.73095 26.666L6.83385 26.6771C7.24367 26.7226 7.65783 26.6466 8.02476 26.4585C8.3917 26.2704 8.69521 25.9785 8.8975 25.6192L8.91934 25.5776L11.9073 19.7494L17.9484 27.247C18.1233 27.4642 18.3393 27.6447 18.584 27.7784C18.8287 27.9121 19.0974 27.9962 19.3746 28.0261C19.6519 28.0559 19.9323 28.0308 20.1998 27.9523C20.4674 27.8737 20.7168 27.7432 20.934 27.5682L22.7868 26.0754C23.004 25.9005 23.1846 25.6845 23.3182 25.4397C23.4519 25.195 23.5361 24.9264 23.5659 24.6491C23.5957 24.3719 23.5707 24.0915 23.4921 23.8239C23.4135 23.5564 23.283 23.3069 23.1081 23.0898L17.067 15.5922ZM19.601 25.9154L13.56 18.4178C13.343 18.148 13.0633 17.9353 12.7453 17.7983C12.4273 17.6614 12.0806 17.6043 11.7354 17.632C11.3903 17.6598 11.0572 17.7715 10.7651 17.9575C10.473 18.1435 10.2309 18.3981 10.0598 18.6991C10.0582 18.7136 10.0448 18.7269 10.0381 18.7395L7.05655 24.5577L2.43743 2.71562L22.7857 11.8714L16.473 13.5464L16.429 13.559C16.0984 13.6622 15.7982 13.8446 15.5543 14.0904C15.3104 14.3362 15.1304 14.6379 15.0298 14.9693C14.9293 15.3006 14.9114 15.6515 14.9775 15.9914C15.0437 16.3312 15.192 16.6498 15.4095 16.9192L21.4554 24.4214L19.601 25.9154Z" fill="black"/>
</svg>
