<svg width="21" height="18" viewBox="0 0 21 22" fill="none" xmlns="http://www.w3.org/2000/svg">
<path fill-rule="evenodd" clip-rule="evenodd" d="M10.4993 7.14014C9.47334 7.14014 8.48938 7.54308 7.7639 8.26034C7.03843 8.97759 6.63086 9.95039 6.63086 10.9647C6.63086 11.9791 7.03843 12.9519 7.7639 13.6691C8.48938 14.3864 9.47334 14.7893 10.4993 14.7893C11.5253 14.7893 12.5092 14.3864 13.2347 13.6691C13.9602 12.9519 14.3678 11.9791 14.3678 10.9647C14.3678 9.95039 13.9602 8.97759 13.2347 8.26034C12.5092 7.54308 11.5253 7.14014 10.4993 7.14014ZM8.17824 10.9647C8.17824 10.3561 8.42278 9.77245 8.85807 9.3421C9.29335 8.91175 9.88373 8.66998 10.4993 8.66998C11.1149 8.66998 11.7053 8.91175 12.1406 9.3421C12.5758 9.77245 12.8204 10.3561 12.8204 10.9647C12.8204 11.5734 12.5758 12.157 12.1406 12.5874C11.7053 13.0177 11.1149 13.2595 10.4993 13.2595C9.88373 13.2595 9.29335 13.0177 8.85807 12.5874C8.42278 12.157 8.17824 11.5734 8.17824 10.9647Z" fill="#111111"/>
<path fill-rule="evenodd" clip-rule="evenodd" d="M10.4742 0C10.0152 0 9.63243 -1.8997e-08 9.31883 0.0203979C8.99828 0.033595 8.68214 0.0990704 8.38318 0.214178C8.03889 0.355015 7.72603 0.561527 7.46248 0.82192C7.19892 1.08231 6.98983 1.39149 6.84715 1.73178C6.69757 2.08874 6.65734 2.46611 6.64083 2.8761C6.63918 3.02605 6.59903 3.17312 6.52415 3.30353C6.44927 3.43393 6.34211 3.5434 6.21272 3.62165C6.07953 3.69355 5.93003 3.73081 5.77827 3.72992C5.62652 3.72902 5.47748 3.69001 5.34516 3.61655C4.97791 3.42481 4.62717 3.2708 4.23929 3.21981C3.86993 3.17177 3.49461 3.19614 3.13477 3.29151C2.77493 3.38688 2.43761 3.55139 2.14208 3.77565C1.8922 3.97441 1.67716 4.21251 1.50559 4.4804C1.33022 4.73945 1.13834 5.06684 0.90933 5.4595L0.88354 5.50437C0.653496 5.89703 0.462652 6.22442 0.32442 6.50387C0.179997 6.79556 0.0665227 7.08317 0.0252592 7.40138C-0.073154 8.13875 0.128706 8.88458 0.586443 9.47482C0.82474 9.78181 1.13525 10.0052 1.48599 10.2234C1.61675 10.2999 1.7257 10.4079 1.80258 10.5375C1.87945 10.667 1.92174 10.8137 1.92544 10.9639C1.92174 11.114 1.87945 11.2607 1.80258 11.3903C1.7257 11.5198 1.61675 11.6279 1.48599 11.7043C1.13525 11.9226 0.825771 12.1459 0.586443 12.4529C0.359614 12.7451 0.193216 13.0786 0.0967513 13.4344C0.000286201 13.7901 -0.0243573 14.1612 0.0242277 14.5264C0.0665228 14.8446 0.178966 15.1322 0.323388 15.4239C0.462652 15.7033 0.653496 16.0307 0.88354 16.4234L0.90933 16.4682C1.13834 16.8609 1.33022 17.1883 1.50559 17.4473C1.68818 17.7156 1.88418 17.9573 2.14208 18.1511C2.43753 18.3755 2.77482 18.5402 3.13466 18.6357C3.4945 18.7313 3.86986 18.7558 4.23929 18.7079C4.62717 18.6569 4.97791 18.5039 5.34516 18.3112C5.47732 18.2378 5.62618 18.1988 5.77776 18.198C5.92933 18.1971 6.07865 18.2343 6.21169 18.3061C6.34179 18.3837 6.44963 18.493 6.52493 18.6235C6.60023 18.754 6.64048 18.9014 6.64186 19.0516C6.65734 19.4616 6.69757 19.839 6.84818 20.196C6.99063 20.5363 7.19951 20.8457 7.46289 21.1062C7.72627 21.3668 8.03899 21.5735 8.38318 21.7146C8.68234 21.837 8.99182 21.8849 9.31883 21.9063C9.63243 21.9277 10.0152 21.9277 10.4742 21.9277H10.5258C10.9848 21.9277 11.3676 21.9277 11.6812 21.9073C12.0092 21.8849 12.3177 21.837 12.6168 21.7136C12.9611 21.5727 13.274 21.3662 13.5375 21.1058C13.8011 20.8454 14.0102 20.5362 14.1529 20.196C14.3024 19.839 14.3427 19.4616 14.3592 19.0516C14.3606 18.9015 14.4007 18.7542 14.4756 18.6236C14.5505 18.493 14.6577 18.3834 14.7873 18.3051C14.9206 18.2333 15.0701 18.1962 15.2219 18.1973C15.3736 18.1984 15.5226 18.2376 15.6548 18.3112C16.0221 18.5029 16.3728 18.6569 16.7607 18.7069C17.5065 18.8042 18.2609 18.6046 18.8579 18.1521C19.1158 17.9563 19.3118 17.7156 19.4944 17.4473C19.6698 17.1883 19.8617 16.8609 20.0907 16.4682L20.1165 16.4234C20.3465 16.0307 20.5373 15.7033 20.6756 15.4239C20.82 15.1322 20.9335 14.8435 20.9747 14.5264C21.0732 13.789 20.8713 13.0432 20.4136 12.4529C20.1753 12.1459 19.8648 11.9226 19.514 11.7043C19.3832 11.6279 19.2743 11.5198 19.1974 11.3903C19.1205 11.2607 19.0783 11.114 19.0746 10.9639C19.0746 10.6803 19.2314 10.3988 19.514 10.2234C19.8648 10.0052 20.1742 9.78181 20.4136 9.47482C20.6404 9.18264 20.8068 8.84914 20.9032 8.49338C20.9997 8.13762 21.0244 7.76655 20.9758 7.40138C20.9267 7.08797 20.8256 6.78473 20.6766 6.50387C20.5005 6.16501 20.3137 5.83168 20.1165 5.50437L20.0907 5.4595C19.9022 5.1271 19.7034 4.80058 19.4944 4.4804C19.3229 4.2128 19.1078 3.97502 18.8579 3.77667C18.5625 3.55223 18.2252 3.38754 17.8653 3.29199C17.5055 3.19644 17.1301 3.17192 16.7607 3.21981C16.3728 3.2708 16.0221 3.42379 15.6548 3.61655C15.5226 3.68983 15.3738 3.72874 15.2222 3.72963C15.0707 3.73053 14.9214 3.69337 14.7883 3.62165C14.6585 3.54364 14.551 3.43429 14.4757 3.30386C14.4005 3.17344 14.36 3.02624 14.3581 2.8761C14.3427 2.46611 14.3024 2.08874 14.1518 1.73178C14.0094 1.39139 13.8005 1.08208 13.5371 0.821511C13.2737 0.560943 12.961 0.354223 12.6168 0.213158C12.3177 0.0907706 12.0082 0.0428356 11.6812 0.0214178C11.3676 2.84955e-08 10.9848 0 10.5258 0H10.4742ZM8.97531 1.62673C9.05475 1.5941 9.17544 1.56452 9.42405 1.54718C9.67886 1.52984 10.009 1.52984 10.5 1.52984C10.991 1.52984 11.3211 1.52984 11.5759 1.54718C11.8246 1.56452 11.9453 1.5941 12.0247 1.62673C12.3414 1.75626 12.5921 2.00409 12.7231 2.3172C12.7643 2.41511 12.7984 2.56911 12.8118 2.93322C12.8427 3.74097 13.2647 4.51915 14.0136 4.94649C14.7625 5.37484 15.6548 5.34629 16.378 4.96893C16.704 4.7986 16.8556 4.75067 16.9629 4.73741C17.3018 4.69313 17.6447 4.78374 17.9161 4.98932C17.9842 5.04134 18.0708 5.13007 18.2101 5.33405C18.3535 5.54415 18.5185 5.82666 18.764 6.24685C19.0096 6.66705 19.1736 6.95058 19.286 7.177C19.3964 7.39832 19.4305 7.51662 19.4408 7.60127C19.4856 7.93638 19.3939 8.27535 19.186 8.54366C19.1199 8.62831 19.0023 8.73438 18.6908 8.92816C17.9976 9.35855 17.5272 10.1092 17.5272 10.9639C17.5272 11.8185 17.9976 12.5692 18.6908 12.9996C19.0023 13.1934 19.1199 13.2994 19.186 13.3841C19.3943 13.6523 19.4851 13.9909 19.4408 14.3265C19.4305 14.4111 19.3954 14.5304 19.286 14.7507C19.1736 14.9782 19.0096 15.2607 18.764 15.6809C18.5185 16.1011 18.3524 16.3836 18.2101 16.5937C18.0708 16.7977 17.9842 16.8864 17.9161 16.9384C17.6447 17.144 17.3018 17.2346 16.9629 17.1903C16.8556 17.1771 16.705 17.1291 16.378 16.9588C15.6559 16.5814 14.7625 16.5529 14.0136 16.9802C13.2647 17.4086 12.8427 18.1868 12.8118 18.9945C12.7984 19.3586 12.7643 19.5126 12.7231 19.6105C12.6583 19.7654 12.5632 19.906 12.4434 20.0245C12.3236 20.143 12.1813 20.2369 12.0247 20.301C11.9453 20.3336 11.8246 20.3632 11.5759 20.3806C11.3211 20.3979 10.991 20.3979 10.5 20.3979C10.009 20.3979 9.67886 20.3979 9.42405 20.3806C9.17544 20.3632 9.05475 20.3336 8.97531 20.301C8.81872 20.2369 8.67644 20.143 8.55661 20.0245C8.43677 19.906 8.34173 19.7654 8.27693 19.6105C8.23567 19.5126 8.20162 19.3586 8.18821 18.9945C8.15726 18.1868 7.73534 17.4086 6.98641 16.9812C6.23748 16.5529 5.34516 16.5814 4.62201 16.9588C4.29603 17.1291 4.14439 17.1771 4.0371 17.1903C3.69816 17.2346 3.3553 17.144 3.08392 16.9384C3.01583 16.8864 2.92918 16.7977 2.78991 16.5937C2.59588 16.2951 2.41114 15.9907 2.23595 15.6809C1.99043 15.2607 1.82641 14.9772 1.71397 14.7507C1.60359 14.5294 1.56955 14.4111 1.55923 14.3265C1.51444 13.9914 1.60609 13.6524 1.81403 13.3841C1.88005 13.2994 1.99765 13.1934 2.30919 12.9996C3.00242 12.5692 3.47283 11.8185 3.47283 10.9639C3.47283 10.1092 3.00242 9.35855 2.30919 8.92816C1.99765 8.73438 1.88005 8.62831 1.81403 8.54366C1.60609 8.27535 1.51444 7.93638 1.55923 7.60127C1.56955 7.51662 1.60462 7.3973 1.71397 7.177C1.82641 6.94956 1.99043 6.66705 2.23595 6.24685C2.48147 5.82666 2.64756 5.54415 2.78991 5.33405C2.92918 5.13007 3.01583 5.04134 3.08392 4.98932C3.3553 4.78374 3.69816 4.69313 4.0371 4.73741C4.14439 4.75067 4.295 4.7986 4.62201 4.96893C5.34413 5.34629 6.23748 5.37484 6.98641 4.94649C7.73534 4.51915 8.15726 3.74097 8.18821 2.93322C8.20162 2.56911 8.23567 2.41511 8.27693 2.3172C8.40794 2.00409 8.65862 1.75626 8.97531 1.62673Z" fill="#111111"/>
</svg>
