<svg width="39" height="33" viewBox="0 0 39 39" fill="none" xmlns="http://www.w3.org/2000/svg">
<path d="M27.2778 2H5.88889C4.85749 2 3.86834 2.40972 3.13903 3.13903C2.40972 3.86834 2 4.85749 2 5.88889V33.1111C2 34.1425 2.40972 35.1317 3.13903 35.861C3.86834 36.5903 4.85749 37 5.88889 37H33.1111C34.1425 37 35.1317 36.5903 35.861 35.861C36.5903 35.1317 37 34.1425 37 33.1111V11.7222L27.2778 2Z" stroke="black" stroke-width="3" stroke-linecap="round" stroke-linejoin="round"/>
<path d="M25.333 2V9.77778C25.333 10.8092 25.7427 11.7983 26.472 12.5276C27.2013 13.2569 28.1905 13.6667 29.2219 13.6667H36.9997" stroke="black" stroke-width="3" stroke-linecap="round" stroke-linejoin="round"/>
</svg>
